<?xml version="1.0" encoding="utf-8" standalone="no"?>
<!DOCTYPE svg PUBLIC "-//W3C//DTD SVG 1.1//EN"
  "http://www.w3.org/Graphics/SVG/1.1/DTD/svg11.dtd">
<svg xmlns:xlink="http://www.w3.org/1999/xlink" width="543.640625pt" height="447.954375pt" viewBox="0 0 543.640625 447.954375" xmlns="http://www.w3.org/2000/svg" version="1.1">
 <metadata>
  <rdf:RDF xmlns:dc="http://purl.org/dc/elements/1.1/" xmlns:cc="http://creativecommons.org/ns#" xmlns:rdf="http://www.w3.org/1999/02/22-rdf-syntax-ns#">
   <cc:Work>
    <dc:type rdf:resource="http://purl.org/dc/dcmitype/StillImage"/>
    <dc:date>2024-05-10T00:18:17.097599</dc:date>
    <dc:format>image/svg+xml</dc:format>
    <dc:creator>
     <cc:Agent>
      <dc:title>Matplotlib v3.8.4, https://matplotlib.org/</dc:title>
     </cc:Agent>
    </dc:creator>
   </cc:Work>
  </rdf:RDF>
 </metadata>
 <defs>
  <style type="text/css">*{stroke-linejoin: round; stroke-linecap: butt}</style>
 </defs>
 <g id="figure_1">
  <g id="patch_1">
   <path d="M 0 447.954375 
L 543.640625 447.954375 
L 543.640625 0 
L 0 0 
z
" style="fill: #ffffff"/>
  </g>
  <g id="axes_1">
   <g id="patch_2">
    <path d="M 34.240625 410.398125 
L 536.440625 410.398125 
L 536.440625 22.318125 
L 34.240625 22.318125 
z
" style="fill: #ffffff"/>
   </g>
   <g id="PathCollection_1">
    <defs>
     <path id="C0_0_4c0a8d5348" d="M 0 3 
C 0.795609 3 1.55874 2.683901 2.12132 2.12132 
C 2.683901 1.55874 3 0.795609 3 -0 
C 3 -0.795609 2.683901 -1.55874 2.12132 -2.12132 
C 1.55874 -2.683901 0.795609 -3 0 -3 
C -0.795609 -3 -1.55874 -2.683901 -2.12132 -2.12132 
C -2.683901 -1.55874 -3 -0.795609 -3 0 
C -3 0.795609 -2.683901 1.55874 -2.12132 2.12132 
C -1.55874 2.683901 -0.795609 3 0 3 
z
"/>
    </defs>
    <g clip-path="url(#p2083813952)">
     <use xlink:href="#C0_0_4c0a8d5348" x="48.237321" y="128.951318" style="fill: #000080; stroke: #000080"/>
    </g>
    <g clip-path="url(#p2083813952)">
     <use xlink:href="#C0_0_4c0a8d5348" x="76.714988" y="161.760069" style="fill: #000080; stroke: #000080"/>
    </g>
    <g clip-path="url(#p2083813952)">
     <use xlink:href="#C0_0_4c0a8d5348" x="105.192654" y="187.224386" style="fill: #000080; stroke: #000080"/>
    </g>
    <g clip-path="url(#p2083813952)">
     <use xlink:href="#C0_0_4c0a8d5348" x="133.67032" y="205.924008" style="fill: #000080; stroke: #000080"/>
    </g>
    <g clip-path="url(#p2083813952)">
     <use xlink:href="#C0_0_4c0a8d5348" x="162.147986" y="218.272161" style="fill: #000080; stroke: #000080"/>
    </g>
    <g clip-path="url(#p2083813952)">
     <use xlink:href="#C0_0_4c0a8d5348" x="190.625652" y="224.524521" style="fill: #000080; stroke: #000080"/>
    </g>
    <g clip-path="url(#p2083813952)">
     <use xlink:href="#C0_0_4c0a8d5348" x="219.103318" y="224.784283" style="fill: #000080; stroke: #000080"/>
    </g>
    <g clip-path="url(#p2083813952)">
     <use xlink:href="#C0_0_4c0a8d5348" x="247.580984" y="219.003382" style="fill: #000080; stroke: #000080"/>
    </g>
    <g clip-path="url(#p2083813952)">
     <use xlink:href="#C0_0_4c0a8d5348" x="80.278897" y="174.739382" style="fill: #0000df; stroke: #0000df"/>
    </g>
    <g clip-path="url(#p2083813952)">
     <use xlink:href="#C0_0_4c0a8d5348" x="108.756563" y="200.998665" style="fill: #0000df; stroke: #0000df"/>
    </g>
    <g clip-path="url(#p2083813952)">
     <use xlink:href="#C0_0_4c0a8d5348" x="137.234229" y="220.85034" style="fill: #0000df; stroke: #0000df"/>
    </g>
    <g clip-path="url(#p2083813952)">
     <use xlink:href="#C0_0_4c0a8d5348" x="165.711895" y="234.740147" style="fill: #0000df; stroke: #0000df"/>
    </g>
    <g clip-path="url(#p2083813952)">
     <use xlink:href="#C0_0_4c0a8d5348" x="194.189561" y="242.966474" style="fill: #0000df; stroke: #0000df"/>
    </g>
    <g clip-path="url(#p2083813952)">
     <use xlink:href="#C0_0_4c0a8d5348" x="222.667227" y="245.68659" style="fill: #0000df; stroke: #0000df"/>
    </g>
    <g clip-path="url(#p2083813952)">
     <use xlink:href="#C0_0_4c0a8d5348" x="251.144893" y="242.919356" style="fill: #0000df; stroke: #0000df"/>
    </g>
    <g clip-path="url(#p2083813952)">
     <use xlink:href="#C0_0_4c0a8d5348" x="279.622559" y="234.544436" style="fill: #0000df; stroke: #0000df"/>
    </g>
    <g clip-path="url(#p2083813952)">
     <use xlink:href="#C0_0_4c0a8d5348" x="149.189434" y="249.98397" style="fill: #0088ff; stroke: #0088ff"/>
    </g>
    <g clip-path="url(#p2083813952)">
     <use xlink:href="#C0_0_4c0a8d5348" x="177.6671" y="265.480359" style="fill: #0088ff; stroke: #0088ff"/>
    </g>
    <g clip-path="url(#p2083813952)">
     <use xlink:href="#C0_0_4c0a8d5348" x="206.144766" y="276.108651" style="fill: #0088ff; stroke: #0088ff"/>
    </g>
    <g clip-path="url(#p2083813952)">
     <use xlink:href="#C0_0_4c0a8d5348" x="234.622432" y="282.094377" style="fill: #0088ff; stroke: #0088ff"/>
    </g>
    <g clip-path="url(#p2083813952)">
     <use xlink:href="#C0_0_4c0a8d5348" x="263.100098" y="283.547212" style="fill: #0088ff; stroke: #0088ff"/>
    </g>
    <g clip-path="url(#p2083813952)">
     <use xlink:href="#C0_0_4c0a8d5348" x="291.577764" y="280.462709" style="fill: #0088ff; stroke: #0088ff"/>
    </g>
    <g clip-path="url(#p2083813952)">
     <use xlink:href="#C0_0_4c0a8d5348" x="320.05543" y="272.721141" style="fill: #0088ff; stroke: #0088ff"/>
    </g>
    <g clip-path="url(#p2083813952)">
     <use xlink:href="#C0_0_4c0a8d5348" x="348.533096" y="260.08341" style="fill: #0088ff; stroke: #0088ff"/>
    </g>
    <g clip-path="url(#p2083813952)">
     <use xlink:href="#C0_0_4c0a8d5348" x="192.667142" y="284.870142" style="fill: #0ff8e7; stroke: #0ff8e7"/>
    </g>
    <g clip-path="url(#p2083813952)">
     <use xlink:href="#C0_0_4c0a8d5348" x="221.144809" y="295.376455" style="fill: #0ff8e7; stroke: #0ff8e7"/>
    </g>
    <g clip-path="url(#p2083813952)">
     <use xlink:href="#C0_0_4c0a8d5348" x="249.622475" y="301.728446" style="fill: #0ff8e7; stroke: #0ff8e7"/>
    </g>
    <g clip-path="url(#p2083813952)">
     <use xlink:href="#C0_0_4c0a8d5348" x="278.100141" y="304.049548" style="fill: #0ff8e7; stroke: #0ff8e7"/>
    </g>
    <g clip-path="url(#p2083813952)">
     <use xlink:href="#C0_0_4c0a8d5348" x="306.577806" y="302.361942" style="fill: #0ff8e7; stroke: #0ff8e7"/>
    </g>
    <g clip-path="url(#p2083813952)">
     <use xlink:href="#C0_0_4c0a8d5348" x="335.055472" y="296.586203" style="fill: #0ff8e7; stroke: #0ff8e7"/>
    </g>
    <g clip-path="url(#p2083813952)">
     <use xlink:href="#C0_0_4c0a8d5348" x="363.533138" y="286.53835" style="fill: #0ff8e7; stroke: #0ff8e7"/>
    </g>
    <g clip-path="url(#p2083813952)">
     <use xlink:href="#C0_0_4c0a8d5348" x="392.010804" y="271.924222" style="fill: #0ff8e7; stroke: #0ff8e7"/>
    </g>
    <g clip-path="url(#p2083813952)">
     <use xlink:href="#C0_0_4c0a8d5348" x="224.708718" y="305.799325" style="fill: #53ffa4; stroke: #53ffa4"/>
    </g>
    <g clip-path="url(#p2083813952)">
     <use xlink:href="#C0_0_4c0a8d5348" x="253.186384" y="313.311953" style="fill: #53ffa4; stroke: #53ffa4"/>
    </g>
    <g clip-path="url(#p2083813952)">
     <use xlink:href="#C0_0_4c0a8d5348" x="281.66405" y="317.098473" style="fill: #53ffa4; stroke: #53ffa4"/>
    </g>
    <g clip-path="url(#p2083813952)">
     <use xlink:href="#C0_0_4c0a8d5348" x="310.141716" y="317.221064" style="fill: #53ffa4; stroke: #53ffa4"/>
    </g>
    <g clip-path="url(#p2083813952)">
     <use xlink:href="#C0_0_4c0a8d5348" x="338.619382" y="313.649421" style="fill: #53ffa4; stroke: #53ffa4"/>
    </g>
    <g clip-path="url(#p2083813952)">
     <use xlink:href="#C0_0_4c0a8d5348" x="367.097048" y="306.259135" style="fill: #53ffa4; stroke: #53ffa4"/>
    </g>
    <g clip-path="url(#p2083813952)">
     <use xlink:href="#C0_0_4c0a8d5348" x="395.574714" y="294.827677" style="fill: #53ffa4; stroke: #53ffa4"/>
    </g>
    <g clip-path="url(#p2083813952)">
     <use xlink:href="#C0_0_4c0a8d5348" x="424.05238" y="279.027854" style="fill: #53ffa4; stroke: #53ffa4"/>
    </g>
    <g clip-path="url(#p2083813952)">
     <use xlink:href="#C0_0_4c0a8d5348" x="149.189434" y="276.230749" style="fill: #e7ff0f; stroke: #e7ff0f"/>
    </g>
    <g clip-path="url(#p2083813952)">
     <use xlink:href="#C0_0_4c0a8d5348" x="182.244468" y="299.239578" style="fill: #e7ff0f; stroke: #e7ff0f"/>
    </g>
    <g clip-path="url(#p2083813952)">
     <use xlink:href="#C0_0_4c0a8d5348" x="215.299502" y="316.889944" style="fill: #e7ff0f; stroke: #e7ff0f"/>
    </g>
    <g clip-path="url(#p2083813952)">
     <use xlink:href="#C0_0_4c0a8d5348" x="248.354536" y="329.729924" style="fill: #e7ff0f; stroke: #e7ff0f"/>
    </g>
    <g clip-path="url(#p2083813952)">
     <use xlink:href="#C0_0_4c0a8d5348" x="281.40957" y="338.148556" style="fill: #e7ff0f; stroke: #e7ff0f"/>
    </g>
    <g clip-path="url(#p2083813952)">
     <use xlink:href="#C0_0_4c0a8d5348" x="314.464604" y="342.387489" style="fill: #e7ff0f; stroke: #e7ff0f"/>
    </g>
    <g clip-path="url(#p2083813952)">
     <use xlink:href="#C0_0_4c0a8d5348" x="347.519637" y="342.547699" style="fill: #e7ff0f; stroke: #e7ff0f"/>
    </g>
    <g clip-path="url(#p2083813952)">
     <use xlink:href="#C0_0_4c0a8d5348" x="380.574671" y="338.591459" style="fill: #e7ff0f; stroke: #e7ff0f"/>
    </g>
    <g clip-path="url(#p2083813952)">
     <use xlink:href="#C0_0_4c0a8d5348" x="192.667142" y="311.116921" style="fill: #ff9f00; stroke: #ff9f00"/>
    </g>
    <g clip-path="url(#p2083813952)">
     <use xlink:href="#C0_0_4c0a8d5348" x="225.722176" y="328.403032" style="fill: #ff9f00; stroke: #ff9f00"/>
    </g>
    <g clip-path="url(#p2083813952)">
     <use xlink:href="#C0_0_4c0a8d5348" x="258.77721" y="341.269434" style="fill: #ff9f00; stroke: #ff9f00"/>
    </g>
    <g clip-path="url(#p2083813952)">
     <use xlink:href="#C0_0_4c0a8d5348" x="291.832244" y="350.11021" style="fill: #ff9f00; stroke: #ff9f00"/>
    </g>
    <g clip-path="url(#p2083813952)">
     <use xlink:href="#C0_0_4c0a8d5348" x="324.887278" y="355.185667" style="fill: #ff9f00; stroke: #ff9f00"/>
    </g>
    <g clip-path="url(#p2083813952)">
     <use xlink:href="#C0_0_4c0a8d5348" x="357.942312" y="356.629837" style="fill: #ff9f00; stroke: #ff9f00"/>
    </g>
    <g clip-path="url(#p2083813952)">
     <use xlink:href="#C0_0_4c0a8d5348" x="390.997346" y="354.453737" style="fill: #ff9f00; stroke: #ff9f00"/>
    </g>
    <g clip-path="url(#p2083813952)">
     <use xlink:href="#C0_0_4c0a8d5348" x="424.05238" y="348.544434" style="fill: #ff9f00; stroke: #ff9f00"/>
    </g>
    <g clip-path="url(#p2083813952)">
     <use xlink:href="#C0_0_4c0a8d5348" x="224.708718" y="332.046104" style="fill: #ff5200; stroke: #ff5200"/>
    </g>
    <g clip-path="url(#p2083813952)">
     <use xlink:href="#C0_0_4c0a8d5348" x="257.763752" y="345.898999" style="fill: #ff5200; stroke: #ff5200"/>
    </g>
    <g clip-path="url(#p2083813952)">
     <use xlink:href="#C0_0_4c0a8d5348" x="290.818785" y="355.895368" style="fill: #ff5200; stroke: #ff5200"/>
    </g>
    <g clip-path="url(#p2083813952)">
     <use xlink:href="#C0_0_4c0a8d5348" x="323.873819" y="362.33691" style="fill: #ff5200; stroke: #ff5200"/>
    </g>
    <g clip-path="url(#p2083813952)">
     <use xlink:href="#C0_0_4c0a8d5348" x="356.928853" y="365.406703" style="fill: #ff5200; stroke: #ff5200"/>
    </g>
    <g clip-path="url(#p2083813952)">
     <use xlink:href="#C0_0_4c0a8d5348" x="389.983887" y="365.174218" style="fill: #ff5200; stroke: #ff5200"/>
    </g>
    <g clip-path="url(#p2083813952)">
     <use xlink:href="#C0_0_4c0a8d5348" x="423.038921" y="361.596499" style="fill: #ff5200; stroke: #ff5200"/>
    </g>
    <g clip-path="url(#p2083813952)">
     <use xlink:href="#C0_0_4c0a8d5348" x="456.093955" y="354.5155" style="fill: #ff5200; stroke: #ff5200"/>
    </g>
    <g clip-path="url(#p2083813952)">
     <use xlink:href="#C0_0_4c0a8d5348" x="293.619255" y="366.439517" style="fill: #800000; stroke: #800000"/>
    </g>
    <g clip-path="url(#p2083813952)">
     <use xlink:href="#C0_0_4c0a8d5348" x="326.674289" y="374.650527" style="fill: #800000; stroke: #800000"/>
    </g>
    <g clip-path="url(#p2083813952)">
     <use xlink:href="#C0_0_4c0a8d5348" x="359.729323" y="379.930504" style="fill: #800000; stroke: #800000"/>
    </g>
    <g clip-path="url(#p2083813952)">
     <use xlink:href="#C0_0_4c0a8d5348" x="392.784356" y="382.42933" style="fill: #800000; stroke: #800000"/>
    </g>
    <g clip-path="url(#p2083813952)">
     <use xlink:href="#C0_0_4c0a8d5348" x="425.83939" y="382.203168" style="fill: #800000; stroke: #800000"/>
    </g>
    <g clip-path="url(#p2083813952)">
     <use xlink:href="#C0_0_4c0a8d5348" x="458.894424" y="379.215396" style="fill: #800000; stroke: #800000"/>
    </g>
    <g clip-path="url(#p2083813952)">
     <use xlink:href="#C0_0_4c0a8d5348" x="491.949458" y="373.334367" style="fill: #800000; stroke: #800000"/>
    </g>
    <g clip-path="url(#p2083813952)">
     <use xlink:href="#C0_0_4c0a8d5348" x="525.004492" y="364.327892" style="fill: #800000; stroke: #800000"/>
    </g>
   </g>
   <g id="matplotlib.axis_1">
    <g id="xtick_1">
     <g id="line2d_1">
      <defs>
       <path id="m78f56d11fe" d="M 0 0 
L 0 3.5 
" style="stroke: #000000; stroke-width: 0.8"/>
      </defs>
      <g>
       <use xlink:href="#m78f56d11fe" x="91.71503" y="410.398125" style="stroke: #000000; stroke-width: 0.8"/>
      </g>
     </g>
     <g id="text_1">
      <!-- $\mathdefault{10^{8}}$ -->
      <g transform="translate(82.91503 424.996562) scale(0.1 -0.1)">
       <defs>
        <path id="DejaVuSans-31" d="M 794 531 
L 1825 531 
L 1825 4091 
L 703 3866 
L 703 4441 
L 1819 4666 
L 2450 4666 
L 2450 531 
L 3481 531 
L 3481 0 
L 794 0 
L 794 531 
z
" transform="scale(0.015625)"/>
        <path id="DejaVuSans-30" d="M 2034 4250 
Q 1547 4250 1301 3770 
Q 1056 3291 1056 2328 
Q 1056 1369 1301 889 
Q 1547 409 2034 409 
Q 2525 409 2770 889 
Q 3016 1369 3016 2328 
Q 3016 3291 2770 3770 
Q 2525 4250 2034 4250 
z
M 2034 4750 
Q 2819 4750 3233 4129 
Q 3647 3509 3647 2328 
Q 3647 1150 3233 529 
Q 2819 -91 2034 -91 
Q 1250 -91 836 529 
Q 422 1150 422 2328 
Q 422 3509 836 4129 
Q 1250 4750 2034 4750 
z
" transform="scale(0.015625)"/>
        <path id="DejaVuSans-38" d="M 2034 2216 
Q 1584 2216 1326 1975 
Q 1069 1734 1069 1313 
Q 1069 891 1326 650 
Q 1584 409 2034 409 
Q 2484 409 2743 651 
Q 3003 894 3003 1313 
Q 3003 1734 2745 1975 
Q 2488 2216 2034 2216 
z
M 1403 2484 
Q 997 2584 770 2862 
Q 544 3141 544 3541 
Q 544 4100 942 4425 
Q 1341 4750 2034 4750 
Q 2731 4750 3128 4425 
Q 3525 4100 3525 3541 
Q 3525 3141 3298 2862 
Q 3072 2584 2669 2484 
Q 3125 2378 3379 2068 
Q 3634 1759 3634 1313 
Q 3634 634 3220 271 
Q 2806 -91 2034 -91 
Q 1263 -91 848 271 
Q 434 634 434 1313 
Q 434 1759 690 2068 
Q 947 2378 1403 2484 
z
M 1172 3481 
Q 1172 3119 1398 2916 
Q 1625 2713 2034 2713 
Q 2441 2713 2670 2916 
Q 2900 3119 2900 3481 
Q 2900 3844 2670 4047 
Q 2441 4250 2034 4250 
Q 1625 4250 1398 4047 
Q 1172 3844 1172 3481 
z
" transform="scale(0.015625)"/>
       </defs>
       <use xlink:href="#DejaVuSans-31" transform="translate(0 0.765625)"/>
       <use xlink:href="#DejaVuSans-30" transform="translate(63.623047 0.765625)"/>
       <use xlink:href="#DejaVuSans-38" transform="translate(128.203125 39.046875) scale(0.7)"/>
      </g>
     </g>
    </g>
    <g id="xtick_2">
     <g id="line2d_2">
      <g>
       <use xlink:href="#m78f56d11fe" x="236.144851" y="410.398125" style="stroke: #000000; stroke-width: 0.8"/>
      </g>
     </g>
     <g id="text_2">
      <!-- $\mathdefault{10^{9}}$ -->
      <g transform="translate(227.344851 424.996562) scale(0.1 -0.1)">
       <defs>
        <path id="DejaVuSans-39" d="M 703 97 
L 703 672 
Q 941 559 1184 500 
Q 1428 441 1663 441 
Q 2288 441 2617 861 
Q 2947 1281 2994 2138 
Q 2813 1869 2534 1725 
Q 2256 1581 1919 1581 
Q 1219 1581 811 2004 
Q 403 2428 403 3163 
Q 403 3881 828 4315 
Q 1253 4750 1959 4750 
Q 2769 4750 3195 4129 
Q 3622 3509 3622 2328 
Q 3622 1225 3098 567 
Q 2575 -91 1691 -91 
Q 1453 -91 1209 -44 
Q 966 3 703 97 
z
M 1959 2075 
Q 2384 2075 2632 2365 
Q 2881 2656 2881 3163 
Q 2881 3666 2632 3958 
Q 2384 4250 1959 4250 
Q 1534 4250 1286 3958 
Q 1038 3666 1038 3163 
Q 1038 2656 1286 2365 
Q 1534 2075 1959 2075 
z
" transform="scale(0.015625)"/>
       </defs>
       <use xlink:href="#DejaVuSans-31" transform="translate(0 0.765625)"/>
       <use xlink:href="#DejaVuSans-30" transform="translate(63.623047 0.765625)"/>
       <use xlink:href="#DejaVuSans-39" transform="translate(128.203125 39.046875) scale(0.7)"/>
      </g>
     </g>
    </g>
    <g id="xtick_3">
     <g id="line2d_3">
      <g>
       <use xlink:href="#m78f56d11fe" x="380.574671" y="410.398125" style="stroke: #000000; stroke-width: 0.8"/>
      </g>
     </g>
     <g id="text_3">
      <!-- $\mathdefault{10^{10}}$ -->
      <g transform="translate(369.524671 424.996562) scale(0.1 -0.1)">
       <use xlink:href="#DejaVuSans-31" transform="translate(0 0.765625)"/>
       <use xlink:href="#DejaVuSans-30" transform="translate(63.623047 0.765625)"/>
       <use xlink:href="#DejaVuSans-31" transform="translate(128.203125 39.046875) scale(0.7)"/>
       <use xlink:href="#DejaVuSans-30" transform="translate(172.739258 39.046875) scale(0.7)"/>
      </g>
     </g>
    </g>
    <g id="xtick_4">
     <g id="line2d_4">
      <g>
       <use xlink:href="#m78f56d11fe" x="525.004492" y="410.398125" style="stroke: #000000; stroke-width: 0.8"/>
      </g>
     </g>
     <g id="text_4">
      <!-- $\mathdefault{10^{11}}$ -->
      <g transform="translate(513.954492 424.996562) scale(0.1 -0.1)">
       <use xlink:href="#DejaVuSans-31" transform="translate(0 0.684375)"/>
       <use xlink:href="#DejaVuSans-30" transform="translate(63.623047 0.684375)"/>
       <use xlink:href="#DejaVuSans-31" transform="translate(128.203125 38.965625) scale(0.7)"/>
       <use xlink:href="#DejaVuSans-31" transform="translate(172.739258 38.965625) scale(0.7)"/>
      </g>
     </g>
    </g>
    <g id="xtick_5">
     <g id="line2d_5">
      <defs>
       <path id="m52a5f22f17" d="M 0 0 
L 0 2 
" style="stroke: #000000; stroke-width: 0.6"/>
      </defs>
      <g>
       <use xlink:href="#m52a5f22f17" x="34.240626" y="410.398125" style="stroke: #000000; stroke-width: 0.6"/>
      </g>
     </g>
    </g>
    <g id="xtick_6">
     <g id="line2d_6">
      <g>
       <use xlink:href="#m52a5f22f17" x="48.237322" y="410.398125" style="stroke: #000000; stroke-width: 0.6"/>
      </g>
     </g>
    </g>
    <g id="xtick_7">
     <g id="line2d_7">
      <g>
       <use xlink:href="#m52a5f22f17" x="59.673455" y="410.398125" style="stroke: #000000; stroke-width: 0.6"/>
      </g>
     </g>
    </g>
    <g id="xtick_8">
     <g id="line2d_8">
      <g>
       <use xlink:href="#m52a5f22f17" x="69.342568" y="410.398125" style="stroke: #000000; stroke-width: 0.6"/>
      </g>
     </g>
    </g>
    <g id="xtick_9">
     <g id="line2d_9">
      <g>
       <use xlink:href="#m52a5f22f17" x="77.718334" y="410.398125" style="stroke: #000000; stroke-width: 0.6"/>
      </g>
     </g>
    </g>
    <g id="xtick_10">
     <g id="line2d_10">
      <g>
       <use xlink:href="#m52a5f22f17" x="85.106284" y="410.398125" style="stroke: #000000; stroke-width: 0.6"/>
      </g>
     </g>
    </g>
    <g id="xtick_11">
     <g id="line2d_11">
      <g>
       <use xlink:href="#m52a5f22f17" x="135.192739" y="410.398125" style="stroke: #000000; stroke-width: 0.6"/>
      </g>
     </g>
    </g>
    <g id="xtick_12">
     <g id="line2d_12">
      <g>
       <use xlink:href="#m52a5f22f17" x="160.625567" y="410.398125" style="stroke: #000000; stroke-width: 0.6"/>
      </g>
     </g>
    </g>
    <g id="xtick_13">
     <g id="line2d_13">
      <g>
       <use xlink:href="#m52a5f22f17" x="178.670447" y="410.398125" style="stroke: #000000; stroke-width: 0.6"/>
      </g>
     </g>
    </g>
    <g id="xtick_14">
     <g id="line2d_14">
      <g>
       <use xlink:href="#m52a5f22f17" x="192.667143" y="410.398125" style="stroke: #000000; stroke-width: 0.6"/>
      </g>
     </g>
    </g>
    <g id="xtick_15">
     <g id="line2d_15">
      <g>
       <use xlink:href="#m52a5f22f17" x="204.103276" y="410.398125" style="stroke: #000000; stroke-width: 0.6"/>
      </g>
     </g>
    </g>
    <g id="xtick_16">
     <g id="line2d_16">
      <g>
       <use xlink:href="#m52a5f22f17" x="213.772389" y="410.398125" style="stroke: #000000; stroke-width: 0.6"/>
      </g>
     </g>
    </g>
    <g id="xtick_17">
     <g id="line2d_17">
      <g>
       <use xlink:href="#m52a5f22f17" x="222.148155" y="410.398125" style="stroke: #000000; stroke-width: 0.6"/>
      </g>
     </g>
    </g>
    <g id="xtick_18">
     <g id="line2d_18">
      <g>
       <use xlink:href="#m52a5f22f17" x="229.536105" y="410.398125" style="stroke: #000000; stroke-width: 0.6"/>
      </g>
     </g>
    </g>
    <g id="xtick_19">
     <g id="line2d_19">
      <g>
       <use xlink:href="#m52a5f22f17" x="279.622559" y="410.398125" style="stroke: #000000; stroke-width: 0.6"/>
      </g>
     </g>
    </g>
    <g id="xtick_20">
     <g id="line2d_20">
      <g>
       <use xlink:href="#m52a5f22f17" x="305.055388" y="410.398125" style="stroke: #000000; stroke-width: 0.6"/>
      </g>
     </g>
    </g>
    <g id="xtick_21">
     <g id="line2d_21">
      <g>
       <use xlink:href="#m52a5f22f17" x="323.100267" y="410.398125" style="stroke: #000000; stroke-width: 0.6"/>
      </g>
     </g>
    </g>
    <g id="xtick_22">
     <g id="line2d_22">
      <g>
       <use xlink:href="#m52a5f22f17" x="337.096963" y="410.398125" style="stroke: #000000; stroke-width: 0.6"/>
      </g>
     </g>
    </g>
    <g id="xtick_23">
     <g id="line2d_23">
      <g>
       <use xlink:href="#m52a5f22f17" x="348.533096" y="410.398125" style="stroke: #000000; stroke-width: 0.6"/>
      </g>
     </g>
    </g>
    <g id="xtick_24">
     <g id="line2d_24">
      <g>
       <use xlink:href="#m52a5f22f17" x="358.202209" y="410.398125" style="stroke: #000000; stroke-width: 0.6"/>
      </g>
     </g>
    </g>
    <g id="xtick_25">
     <g id="line2d_25">
      <g>
       <use xlink:href="#m52a5f22f17" x="366.577976" y="410.398125" style="stroke: #000000; stroke-width: 0.6"/>
      </g>
     </g>
    </g>
    <g id="xtick_26">
     <g id="line2d_26">
      <g>
       <use xlink:href="#m52a5f22f17" x="373.965925" y="410.398125" style="stroke: #000000; stroke-width: 0.6"/>
      </g>
     </g>
    </g>
    <g id="xtick_27">
     <g id="line2d_27">
      <g>
       <use xlink:href="#m52a5f22f17" x="424.05238" y="410.398125" style="stroke: #000000; stroke-width: 0.6"/>
      </g>
     </g>
    </g>
    <g id="xtick_28">
     <g id="line2d_28">
      <g>
       <use xlink:href="#m52a5f22f17" x="449.485209" y="410.398125" style="stroke: #000000; stroke-width: 0.6"/>
      </g>
     </g>
    </g>
    <g id="xtick_29">
     <g id="line2d_29">
      <g>
       <use xlink:href="#m52a5f22f17" x="467.530088" y="410.398125" style="stroke: #000000; stroke-width: 0.6"/>
      </g>
     </g>
    </g>
    <g id="xtick_30">
     <g id="line2d_30">
      <g>
       <use xlink:href="#m52a5f22f17" x="481.526784" y="410.398125" style="stroke: #000000; stroke-width: 0.6"/>
      </g>
     </g>
    </g>
    <g id="xtick_31">
     <g id="line2d_31">
      <g>
       <use xlink:href="#m52a5f22f17" x="492.962917" y="410.398125" style="stroke: #000000; stroke-width: 0.6"/>
      </g>
     </g>
    </g>
    <g id="xtick_32">
     <g id="line2d_32">
      <g>
       <use xlink:href="#m52a5f22f17" x="502.63203" y="410.398125" style="stroke: #000000; stroke-width: 0.6"/>
      </g>
     </g>
    </g>
    <g id="xtick_33">
     <g id="line2d_33">
      <g>
       <use xlink:href="#m52a5f22f17" x="511.007796" y="410.398125" style="stroke: #000000; stroke-width: 0.6"/>
      </g>
     </g>
    </g>
    <g id="xtick_34">
     <g id="line2d_34">
      <g>
       <use xlink:href="#m52a5f22f17" x="518.395746" y="410.398125" style="stroke: #000000; stroke-width: 0.6"/>
      </g>
     </g>
    </g>
    <g id="text_5">
     <!-- Parameters -->
     <g transform="translate(256.723438 438.674687) scale(0.1 -0.1)">
      <defs>
       <path id="DejaVuSans-50" d="M 1259 4147 
L 1259 2394 
L 2053 2394 
Q 2494 2394 2734 2622 
Q 2975 2850 2975 3272 
Q 2975 3691 2734 3919 
Q 2494 4147 2053 4147 
L 1259 4147 
z
M 628 4666 
L 2053 4666 
Q 2838 4666 3239 4311 
Q 3641 3956 3641 3272 
Q 3641 2581 3239 2228 
Q 2838 1875 2053 1875 
L 1259 1875 
L 1259 0 
L 628 0 
L 628 4666 
z
" transform="scale(0.015625)"/>
       <path id="DejaVuSans-61" d="M 2194 1759 
Q 1497 1759 1228 1600 
Q 959 1441 959 1056 
Q 959 750 1161 570 
Q 1363 391 1709 391 
Q 2188 391 2477 730 
Q 2766 1069 2766 1631 
L 2766 1759 
L 2194 1759 
z
M 3341 1997 
L 3341 0 
L 2766 0 
L 2766 531 
Q 2569 213 2275 61 
Q 1981 -91 1556 -91 
Q 1019 -91 701 211 
Q 384 513 384 1019 
Q 384 1609 779 1909 
Q 1175 2209 1959 2209 
L 2766 2209 
L 2766 2266 
Q 2766 2663 2505 2880 
Q 2244 3097 1772 3097 
Q 1472 3097 1187 3025 
Q 903 2953 641 2809 
L 641 3341 
Q 956 3463 1253 3523 
Q 1550 3584 1831 3584 
Q 2591 3584 2966 3190 
Q 3341 2797 3341 1997 
z
" transform="scale(0.015625)"/>
       <path id="DejaVuSans-72" d="M 2631 2963 
Q 2534 3019 2420 3045 
Q 2306 3072 2169 3072 
Q 1681 3072 1420 2755 
Q 1159 2438 1159 1844 
L 1159 0 
L 581 0 
L 581 3500 
L 1159 3500 
L 1159 2956 
Q 1341 3275 1631 3429 
Q 1922 3584 2338 3584 
Q 2397 3584 2469 3576 
Q 2541 3569 2628 3553 
L 2631 2963 
z
" transform="scale(0.015625)"/>
       <path id="DejaVuSans-6d" d="M 3328 2828 
Q 3544 3216 3844 3400 
Q 4144 3584 4550 3584 
Q 5097 3584 5394 3201 
Q 5691 2819 5691 2113 
L 5691 0 
L 5113 0 
L 5113 2094 
Q 5113 2597 4934 2840 
Q 4756 3084 4391 3084 
Q 3944 3084 3684 2787 
Q 3425 2491 3425 1978 
L 3425 0 
L 2847 0 
L 2847 2094 
Q 2847 2600 2669 2842 
Q 2491 3084 2119 3084 
Q 1678 3084 1418 2786 
Q 1159 2488 1159 1978 
L 1159 0 
L 581 0 
L 581 3500 
L 1159 3500 
L 1159 2956 
Q 1356 3278 1631 3431 
Q 1906 3584 2284 3584 
Q 2666 3584 2933 3390 
Q 3200 3197 3328 2828 
z
" transform="scale(0.015625)"/>
       <path id="DejaVuSans-65" d="M 3597 1894 
L 3597 1613 
L 953 1613 
Q 991 1019 1311 708 
Q 1631 397 2203 397 
Q 2534 397 2845 478 
Q 3156 559 3463 722 
L 3463 178 
Q 3153 47 2828 -22 
Q 2503 -91 2169 -91 
Q 1331 -91 842 396 
Q 353 884 353 1716 
Q 353 2575 817 3079 
Q 1281 3584 2069 3584 
Q 2775 3584 3186 3129 
Q 3597 2675 3597 1894 
z
M 3022 2063 
Q 3016 2534 2758 2815 
Q 2500 3097 2075 3097 
Q 1594 3097 1305 2825 
Q 1016 2553 972 2059 
L 3022 2063 
z
" transform="scale(0.015625)"/>
       <path id="DejaVuSans-74" d="M 1172 4494 
L 1172 3500 
L 2356 3500 
L 2356 3053 
L 1172 3053 
L 1172 1153 
Q 1172 725 1289 603 
Q 1406 481 1766 481 
L 2356 481 
L 2356 0 
L 1766 0 
Q 1100 0 847 248 
Q 594 497 594 1153 
L 594 3053 
L 172 3053 
L 172 3500 
L 594 3500 
L 594 4494 
L 1172 4494 
z
" transform="scale(0.015625)"/>
       <path id="DejaVuSans-73" d="M 2834 3397 
L 2834 2853 
Q 2591 2978 2328 3040 
Q 2066 3103 1784 3103 
Q 1356 3103 1142 2972 
Q 928 2841 928 2578 
Q 928 2378 1081 2264 
Q 1234 2150 1697 2047 
L 1894 2003 
Q 2506 1872 2764 1633 
Q 3022 1394 3022 966 
Q 3022 478 2636 193 
Q 2250 -91 1575 -91 
Q 1294 -91 989 -36 
Q 684 19 347 128 
L 347 722 
Q 666 556 975 473 
Q 1284 391 1588 391 
Q 1994 391 2212 530 
Q 2431 669 2431 922 
Q 2431 1156 2273 1281 
Q 2116 1406 1581 1522 
L 1381 1569 
Q 847 1681 609 1914 
Q 372 2147 372 2553 
Q 372 3047 722 3315 
Q 1072 3584 1716 3584 
Q 2034 3584 2315 3537 
Q 2597 3491 2834 3397 
z
" transform="scale(0.015625)"/>
      </defs>
      <use xlink:href="#DejaVuSans-50"/>
      <use xlink:href="#DejaVuSans-61" x="55.802734"/>
      <use xlink:href="#DejaVuSans-72" x="117.082031"/>
      <use xlink:href="#DejaVuSans-61" x="158.195312"/>
      <use xlink:href="#DejaVuSans-6d" x="219.474609"/>
      <use xlink:href="#DejaVuSans-65" x="316.886719"/>
      <use xlink:href="#DejaVuSans-74" x="378.410156"/>
      <use xlink:href="#DejaVuSans-65" x="417.619141"/>
      <use xlink:href="#DejaVuSans-72" x="479.142578"/>
      <use xlink:href="#DejaVuSans-73" x="520.255859"/>
     </g>
    </g>
   </g>
   <g id="matplotlib.axis_2">
    <g id="ytick_1">
     <g id="line2d_35">
      <defs>
       <path id="m119d45a3d2" d="M 0 0 
L -3.5 0 
" style="stroke: #000000; stroke-width: 0.8"/>
      </defs>
      <g>
       <use xlink:href="#m119d45a3d2" x="34.240625" y="365.616829" style="stroke: #000000; stroke-width: 0.8"/>
      </g>
     </g>
     <g id="text_6">
      <!-- 4 -->
      <g transform="translate(20.878125 369.416048) scale(0.1 -0.1)">
       <defs>
        <path id="DejaVuSans-34" d="M 2419 4116 
L 825 1625 
L 2419 1625 
L 2419 4116 
z
M 2253 4666 
L 3047 4666 
L 3047 1625 
L 3713 1625 
L 3713 1100 
L 3047 1100 
L 3047 0 
L 2419 0 
L 2419 1100 
L 313 1100 
L 313 1709 
L 2253 4666 
z
" transform="scale(0.015625)"/>
       </defs>
       <use xlink:href="#DejaVuSans-34"/>
      </g>
     </g>
    </g>
    <g id="ytick_2">
     <g id="line2d_36">
      <g>
       <use xlink:href="#m119d45a3d2" x="34.240625" y="291.491716" style="stroke: #000000; stroke-width: 0.8"/>
      </g>
     </g>
     <g id="text_7">
      <!-- 5 -->
      <g transform="translate(20.878125 295.290935) scale(0.1 -0.1)">
       <defs>
        <path id="DejaVuSans-35" d="M 691 4666 
L 3169 4666 
L 3169 4134 
L 1269 4134 
L 1269 2991 
Q 1406 3038 1543 3061 
Q 1681 3084 1819 3084 
Q 2600 3084 3056 2656 
Q 3513 2228 3513 1497 
Q 3513 744 3044 326 
Q 2575 -91 1722 -91 
Q 1428 -91 1123 -41 
Q 819 9 494 109 
L 494 744 
Q 775 591 1075 516 
Q 1375 441 1709 441 
Q 2250 441 2565 725 
Q 2881 1009 2881 1497 
Q 2881 1984 2565 2268 
Q 2250 2553 1709 2553 
Q 1456 2553 1204 2497 
Q 953 2441 691 2322 
L 691 4666 
z
" transform="scale(0.015625)"/>
       </defs>
       <use xlink:href="#DejaVuSans-35"/>
      </g>
     </g>
    </g>
    <g id="ytick_3">
     <g id="line2d_37">
      <g>
       <use xlink:href="#m119d45a3d2" x="34.240625" y="217.366603" style="stroke: #000000; stroke-width: 0.8"/>
      </g>
     </g>
     <g id="text_8">
      <!-- 6 -->
      <g transform="translate(20.878125 221.165822) scale(0.1 -0.1)">
       <defs>
        <path id="DejaVuSans-36" d="M 2113 2584 
Q 1688 2584 1439 2293 
Q 1191 2003 1191 1497 
Q 1191 994 1439 701 
Q 1688 409 2113 409 
Q 2538 409 2786 701 
Q 3034 994 3034 1497 
Q 3034 2003 2786 2293 
Q 2538 2584 2113 2584 
z
M 3366 4563 
L 3366 3988 
Q 3128 4100 2886 4159 
Q 2644 4219 2406 4219 
Q 1781 4219 1451 3797 
Q 1122 3375 1075 2522 
Q 1259 2794 1537 2939 
Q 1816 3084 2150 3084 
Q 2853 3084 3261 2657 
Q 3669 2231 3669 1497 
Q 3669 778 3244 343 
Q 2819 -91 2113 -91 
Q 1303 -91 875 529 
Q 447 1150 447 2328 
Q 447 3434 972 4092 
Q 1497 4750 2381 4750 
Q 2619 4750 2861 4703 
Q 3103 4656 3366 4563 
z
" transform="scale(0.015625)"/>
       </defs>
       <use xlink:href="#DejaVuSans-36"/>
      </g>
     </g>
    </g>
    <g id="ytick_4">
     <g id="line2d_38">
      <g>
       <use xlink:href="#m119d45a3d2" x="34.240625" y="143.24149" style="stroke: #000000; stroke-width: 0.8"/>
      </g>
     </g>
     <g id="text_9">
      <!-- 7 -->
      <g transform="translate(20.878125 147.040709) scale(0.1 -0.1)">
       <defs>
        <path id="DejaVuSans-37" d="M 525 4666 
L 3525 4666 
L 3525 4397 
L 1831 0 
L 1172 0 
L 2766 4134 
L 525 4134 
L 525 4666 
z
" transform="scale(0.015625)"/>
       </defs>
       <use xlink:href="#DejaVuSans-37"/>
      </g>
     </g>
    </g>
    <g id="ytick_5">
     <g id="line2d_39">
      <g>
       <use xlink:href="#m119d45a3d2" x="34.240625" y="69.116378" style="stroke: #000000; stroke-width: 0.8"/>
      </g>
     </g>
     <g id="text_10">
      <!-- 8 -->
      <g transform="translate(20.878125 72.915596) scale(0.1 -0.1)">
       <use xlink:href="#DejaVuSans-38"/>
      </g>
     </g>
    </g>
    <g id="text_11">
     <!-- Final Loss -->
     <g transform="translate(14.798437 240.438594) rotate(-90) scale(0.1 -0.1)">
      <defs>
       <path id="DejaVuSans-46" d="M 628 4666 
L 3309 4666 
L 3309 4134 
L 1259 4134 
L 1259 2759 
L 3109 2759 
L 3109 2228 
L 1259 2228 
L 1259 0 
L 628 0 
L 628 4666 
z
" transform="scale(0.015625)"/>
       <path id="DejaVuSans-69" d="M 603 3500 
L 1178 3500 
L 1178 0 
L 603 0 
L 603 3500 
z
M 603 4863 
L 1178 4863 
L 1178 4134 
L 603 4134 
L 603 4863 
z
" transform="scale(0.015625)"/>
       <path id="DejaVuSans-6e" d="M 3513 2113 
L 3513 0 
L 2938 0 
L 2938 2094 
Q 2938 2591 2744 2837 
Q 2550 3084 2163 3084 
Q 1697 3084 1428 2787 
Q 1159 2491 1159 1978 
L 1159 0 
L 581 0 
L 581 3500 
L 1159 3500 
L 1159 2956 
Q 1366 3272 1645 3428 
Q 1925 3584 2291 3584 
Q 2894 3584 3203 3211 
Q 3513 2838 3513 2113 
z
" transform="scale(0.015625)"/>
       <path id="DejaVuSans-6c" d="M 603 4863 
L 1178 4863 
L 1178 0 
L 603 0 
L 603 4863 
z
" transform="scale(0.015625)"/>
       <path id="DejaVuSans-20" transform="scale(0.015625)"/>
       <path id="DejaVuSans-4c" d="M 628 4666 
L 1259 4666 
L 1259 531 
L 3531 531 
L 3531 0 
L 628 0 
L 628 4666 
z
" transform="scale(0.015625)"/>
       <path id="DejaVuSans-6f" d="M 1959 3097 
Q 1497 3097 1228 2736 
Q 959 2375 959 1747 
Q 959 1119 1226 758 
Q 1494 397 1959 397 
Q 2419 397 2687 759 
Q 2956 1122 2956 1747 
Q 2956 2369 2687 2733 
Q 2419 3097 1959 3097 
z
M 1959 3584 
Q 2709 3584 3137 3096 
Q 3566 2609 3566 1747 
Q 3566 888 3137 398 
Q 2709 -91 1959 -91 
Q 1206 -91 779 398 
Q 353 888 353 1747 
Q 353 2609 779 3096 
Q 1206 3584 1959 3584 
z
" transform="scale(0.015625)"/>
      </defs>
      <use xlink:href="#DejaVuSans-46"/>
      <use xlink:href="#DejaVuSans-69" x="50.269531"/>
      <use xlink:href="#DejaVuSans-6e" x="78.052734"/>
      <use xlink:href="#DejaVuSans-61" x="141.431641"/>
      <use xlink:href="#DejaVuSans-6c" x="202.710938"/>
      <use xlink:href="#DejaVuSans-20" x="230.494141"/>
      <use xlink:href="#DejaVuSans-4c" x="262.28125"/>
      <use xlink:href="#DejaVuSans-6f" x="316.244141"/>
      <use xlink:href="#DejaVuSans-73" x="377.425781"/>
      <use xlink:href="#DejaVuSans-73" x="429.525391"/>
     </g>
    </g>
   </g>
   <g id="line2d_40">
    <path d="M 34.240625 111.520398 
L 41.811479 121.427235 
L 49.382334 130.884764 
L 56.953188 139.892987 
L 64.524042 148.451902 
L 72.094896 156.56151 
L 79.665751 164.221812 
L 87.236605 171.432806 
L 94.807459 178.194493 
L 99.854695 182.45267 
L 104.901932 186.511154 
L 109.949168 190.369947 
L 114.996404 194.029047 
L 120.04364 197.488456 
L 125.090876 200.748172 
L 130.138112 203.808197 
L 135.185349 206.668529 
L 140.232585 209.32917 
L 145.279821 211.790118 
L 150.327057 214.051374 
L 155.374293 216.112939 
L 160.42153 217.974811 
L 165.468766 219.636992 
L 170.516002 221.09948 
L 175.563238 222.362276 
L 180.610474 223.425381 
L 185.65771 224.288793 
L 190.704947 224.952513 
L 195.752183 225.416542 
L 200.799419 225.680878 
L 205.846655 225.745522 
L 210.893891 225.610475 
L 215.941128 225.275735 
L 220.988364 224.741303 
L 226.0356 224.00718 
L 231.082836 223.073364 
L 236.130072 221.939856 
L 241.177308 220.606656 
L 246.224545 219.073765 
L 251.271781 217.341181 
L 256.319017 215.408905 
L 261.366253 213.276937 
L 266.413489 210.945278 
L 271.460726 208.413926 
L 276.507962 205.682882 
L 281.555198 202.752146 
L 286.602434 199.621718 
L 291.64967 196.291599 
L 296.696906 192.761787 
L 301.744143 189.032283 
L 306.791379 185.103087 
L 311.838615 180.974199 
L 316.885851 176.645619 
L 321.933087 172.117347 
L 329.503942 164.950517 
L 337.074796 157.33438 
L 344.64565 149.268935 
L 352.216504 140.754184 
L 359.787359 131.790126 
L 367.358213 122.37676 
L 374.929067 112.514088 
L 382.499921 102.202108 
L 390.070776 91.440822 
L 397.64163 80.230228 
L 405.212484 68.570328 
L 412.783339 56.46112 
L 420.354193 43.902605 
L 427.925047 30.894784 
L 435.495901 17.437655 
L 443.066756 3.53122 
L 445.481599 -1 
L 445.481599 -1 
" clip-path="url(#p2083813952)" style="fill: none; stroke-dasharray: 5.55,2.4; stroke-dashoffset: 0; stroke: #000080; stroke-width: 1.5"/>
   </g>
   <g id="line2d_41">
    <path d="M 34.240625 121.668153 
L 41.811479 131.477367 
L 49.382334 140.88335 
L 56.953188 149.886102 
L 64.524042 158.485623 
L 72.094896 166.681913 
L 79.665751 174.474971 
L 87.236605 181.864799 
L 94.807459 188.851396 
L 102.378313 195.434761 
L 109.949168 201.614896 
L 117.520022 207.391799 
L 125.090876 212.765471 
L 130.138112 216.123902 
L 135.185349 219.303119 
L 140.232585 222.303123 
L 145.279821 225.123912 
L 150.327057 227.765488 
L 155.374293 230.22785 
L 160.42153 232.510998 
L 165.468766 234.614932 
L 170.516002 236.539653 
L 175.563238 238.285159 
L 180.610474 239.851452 
L 185.65771 241.238531 
L 190.704947 242.446396 
L 195.752183 243.475048 
L 200.799419 244.324485 
L 205.846655 244.994709 
L 210.893891 245.485719 
L 215.941128 245.797515 
L 220.988364 245.930098 
L 226.0356 245.883466 
L 231.082836 245.657621 
L 236.130072 245.252562 
L 241.177308 244.668289 
L 246.224545 243.904802 
L 251.271781 242.962102 
L 256.319017 241.840188 
L 261.366253 240.539059 
L 266.413489 239.058717 
L 271.460726 237.399162 
L 276.507962 235.560392 
L 281.555198 233.542409 
L 286.602434 231.345212 
L 291.64967 228.968801 
L 296.696906 226.413176 
L 301.744143 223.678337 
L 306.791379 220.764285 
L 311.838615 217.671018 
L 316.885851 214.398538 
L 321.933087 210.946845 
L 329.503942 205.433278 
L 337.074796 199.51648 
L 344.64565 193.196451 
L 352.216504 186.473191 
L 359.787359 179.3467 
L 367.358213 171.816978 
L 374.929067 163.884025 
L 382.499921 155.547841 
L 390.070776 146.808426 
L 397.64163 137.665779 
L 405.212484 128.119902 
L 412.783339 118.170793 
L 420.354193 107.818454 
L 427.925047 97.062883 
L 435.495901 85.904082 
L 443.066756 74.342049 
L 450.63761 62.376785 
L 458.208464 50.00829 
L 465.779318 37.236564 
L 473.350173 24.061607 
L 480.921027 10.483419 
L 487.152109 -1 
L 487.152109 -1 
" clip-path="url(#p2083813952)" style="fill: none; stroke-dasharray: 5.55,2.4; stroke-dashoffset: 0; stroke: #0000ff; stroke-width: 1.5"/>
   </g>
   <g id="line2d_42">
    <path d="M 34.240625 140.982038 
L 41.811479 150.486988 
L 49.382334 159.664424 
L 56.953188 168.514347 
L 64.524042 177.036756 
L 72.094896 185.231652 
L 79.665751 193.099034 
L 87.236605 200.638903 
L 94.807459 207.851259 
L 102.378313 214.736102 
L 109.949168 221.293431 
L 117.520022 227.523246 
L 125.090876 233.425548 
L 132.661731 239.000337 
L 140.232585 244.247613 
L 147.803439 249.167375 
L 155.374293 253.759624 
L 162.945148 258.024359 
L 170.516002 261.961581 
L 178.086856 265.571289 
L 185.65771 268.853484 
L 193.228565 271.808166 
L 200.799419 274.435334 
L 208.370273 276.734989 
L 215.941128 278.707131 
L 223.511982 280.351759 
L 231.082836 281.668874 
L 238.65369 282.658475 
L 246.224545 283.320563 
L 253.795399 283.655138 
L 261.366253 283.662199 
L 268.937107 283.341747 
L 276.507962 282.693781 
L 284.078816 281.718303 
L 291.64967 280.41531 
L 299.220524 278.784805 
L 306.791379 276.826785 
L 314.362233 274.541253 
L 321.933087 271.928207 
L 329.503942 268.987648 
L 337.074796 265.719575 
L 344.64565 262.123989 
L 352.216504 258.20089 
L 359.787359 253.950277 
L 367.358213 249.372151 
L 374.929067 244.466511 
L 382.499921 239.233358 
L 390.070776 233.672692 
L 397.64163 227.784512 
L 405.212484 221.568819 
L 412.783339 215.025612 
L 420.354193 208.154893 
L 427.925047 200.956659 
L 435.495901 193.430913 
L 443.066756 185.577653 
L 450.63761 177.396879 
L 458.208464 168.888592 
L 465.779318 160.052792 
L 473.350173 150.889478 
L 480.921027 141.398651 
L 488.491881 131.580311 
L 496.062736 121.434457 
L 503.63359 110.96109 
L 511.204444 100.160209 
L 518.775298 89.031815 
L 526.346153 77.575908 
L 533.917007 65.792487 
L 536.440625 61.7919 
L 536.440625 61.7919 
" clip-path="url(#p2083813952)" style="fill: none; stroke-dasharray: 5.55,2.4; stroke-dashoffset: 0; stroke: #0060ff; stroke-width: 1.5"/>
   </g>
   <g id="line2d_43">
    <path d="M 34.240625 150.263558 
L 41.811479 159.605012 
L 49.382334 168.654058 
L 56.953188 177.410696 
L 64.524042 185.874926 
L 72.094896 194.046748 
L 79.665751 201.926163 
L 87.236605 209.513169 
L 94.807459 216.807768 
L 102.378313 223.809959 
L 109.949168 230.519742 
L 117.520022 236.937117 
L 125.090876 243.062084 
L 132.661731 248.894643 
L 140.232585 254.434794 
L 147.803439 259.682538 
L 155.374293 264.637874 
L 162.945148 269.300801 
L 170.516002 273.671321 
L 178.086856 277.749433 
L 185.65771 281.535137 
L 193.228565 285.028434 
L 200.799419 288.229322 
L 208.370273 291.137803 
L 215.941128 293.753875 
L 223.511982 296.07754 
L 231.082836 298.108797 
L 238.65369 299.847646 
L 246.224545 301.294087 
L 253.795399 302.448121 
L 261.366253 303.309746 
L 268.937107 303.878963 
L 276.507962 304.155773 
L 284.078816 304.140175 
L 291.64967 303.832169 
L 299.220524 303.231755 
L 306.791379 302.338933 
L 314.362233 301.153703 
L 321.933087 299.676066 
L 329.503942 297.90602 
L 337.074796 295.843567 
L 344.64565 293.488706 
L 352.216504 290.841436 
L 359.787359 287.901759 
L 367.358213 284.669675 
L 374.929067 281.145182 
L 382.499921 277.328281 
L 390.070776 273.218973 
L 397.64163 268.817256 
L 405.212484 264.123132 
L 412.783339 259.1366 
L 420.354193 253.85766 
L 427.925047 248.286312 
L 435.495901 242.422557 
L 443.066756 236.266393 
L 450.63761 229.817822 
L 458.208464 223.076842 
L 465.779318 216.043455 
L 473.350173 208.71766 
L 480.921027 201.099457 
L 488.491881 193.188846 
L 496.062736 184.985827 
L 503.63359 176.490401 
L 511.204444 167.702566 
L 518.775298 158.622324 
L 526.346153 149.249674 
L 533.917007 139.584616 
L 536.440625 136.29795 
L 536.440625 136.29795 
" clip-path="url(#p2083813952)" style="fill: none; stroke-dasharray: 5.55,2.4; stroke-dashoffset: 0; stroke: #00d4ff; stroke-width: 1.5"/>
   </g>
   <g id="line2d_44">
    <path d="M 34.240625 155.033992 
L 41.811479 164.297398 
L 49.382334 173.289456 
L 56.953188 182.010167 
L 64.524042 190.459532 
L 72.094896 198.637549 
L 79.665751 206.544219 
L 87.236605 214.179542 
L 94.807459 221.543517 
L 102.378313 228.636146 
L 109.949168 235.457427 
L 117.520022 242.007362 
L 125.090876 248.285949 
L 132.661731 254.293189 
L 140.232585 260.029082 
L 147.803439 265.493628 
L 155.374293 270.686827 
L 162.945148 275.608679 
L 170.516002 280.259184 
L 178.086856 284.638341 
L 185.65771 288.746152 
L 193.228565 292.582615 
L 200.799419 296.147731 
L 208.370273 299.4415 
L 215.941128 302.463922 
L 223.511982 305.214997 
L 231.082836 307.694725 
L 238.65369 309.903106 
L 246.224545 311.840139 
L 253.795399 313.505826 
L 261.366253 314.900165 
L 268.937107 316.023157 
L 276.507962 316.874802 
L 284.078816 317.4551 
L 291.64967 317.764051 
L 299.220524 317.801655 
L 306.791379 317.567912 
L 314.362233 317.062821 
L 321.933087 316.286384 
L 329.503942 315.238599 
L 337.074796 313.919468 
L 344.64565 312.328989 
L 352.216504 310.467163 
L 359.787359 308.33399 
L 367.358213 305.92947 
L 374.929067 303.253602 
L 382.499921 300.306388 
L 390.070776 297.087826 
L 397.64163 293.597918 
L 405.212484 289.836662 
L 412.783339 285.804059 
L 420.354193 281.500109 
L 427.925047 276.924812 
L 435.495901 272.078168 
L 443.066756 266.960177 
L 450.63761 261.570838 
L 458.208464 255.910153 
L 465.779318 249.97812 
L 473.350173 243.774741 
L 480.921027 237.300014 
L 488.491881 230.55394 
L 496.062736 223.536519 
L 503.63359 216.247751 
L 511.204444 208.687635 
L 518.775298 200.856173 
L 526.346153 192.753364 
L 533.917007 184.379207 
L 536.440625 181.527522 
L 536.440625 181.527522 
" clip-path="url(#p2083813952)" style="fill: none; stroke-dasharray: 5.55,2.4; stroke-dashoffset: 0; stroke: #4dffaa; stroke-width: 1.5"/>
   </g>
   <g id="line2d_45">
    <path d="M 34.240625 165.573971 
L 44.335097 177.478974 
L 54.42957 188.971325 
L 64.524042 200.051023 
L 74.618514 210.718069 
L 84.712987 220.972463 
L 94.807459 230.814204 
L 102.378313 237.924707 
L 109.949168 244.803093 
L 117.520022 251.449363 
L 125.090876 257.863515 
L 132.661731 264.045551 
L 140.232585 269.995469 
L 147.803439 275.713271 
L 155.374293 281.198956 
L 162.945148 286.452524 
L 170.516002 291.473975 
L 178.086856 296.263309 
L 185.65771 300.820526 
L 193.228565 305.145627 
L 200.799419 309.23861 
L 208.370273 313.099477 
L 215.941128 316.728227 
L 223.511982 320.124859 
L 231.082836 323.289375 
L 238.65369 326.221774 
L 246.224545 328.922057 
L 253.795399 331.390222 
L 261.366253 333.62627 
L 268.937107 335.630202 
L 276.507962 337.402016 
L 284.078816 338.941714 
L 291.64967 340.249295 
L 299.220524 341.324759 
L 306.791379 342.168106 
L 314.362233 342.779336 
L 321.933087 343.158449 
L 329.503942 343.305446 
L 337.074796 343.220325 
L 344.64565 342.903088 
L 352.216504 342.353733 
L 359.787359 341.572262 
L 367.358213 340.558674 
L 374.929067 339.312969 
L 382.499921 337.835147 
L 390.070776 336.125209 
L 397.64163 334.183153 
L 405.212484 332.00898 
L 412.783339 329.602691 
L 420.354193 326.964285 
L 427.925047 324.093761 
L 435.495901 320.991121 
L 443.066756 317.656364 
L 450.63761 314.08949 
L 458.208464 310.2905 
L 465.779318 306.259392 
L 473.350173 301.996167 
L 480.921027 297.500826 
L 488.491881 292.773368 
L 496.062736 287.813792 
L 503.63359 282.6221 
L 511.204444 277.198291 
L 518.775298 271.542365 
L 526.346153 265.654323 
L 533.917007 259.534163 
L 536.440625 257.442528 
L 536.440625 257.442528 
" clip-path="url(#p2083813952)" style="fill: none; stroke-dasharray: 5.55,2.4; stroke-dashoffset: 0; stroke: #aaff4d; stroke-width: 1.5"/>
   </g>
   <g id="line2d_46">
    <path d="M 34.240625 178.564716 
L 44.335097 189.637516 
L 54.42957 200.355385 
L 64.524042 210.718324 
L 74.618514 220.726332 
L 84.712987 230.37941 
L 94.807459 239.677558 
L 104.901932 248.620776 
L 114.996404 257.209063 
L 125.090876 265.44242 
L 135.185349 273.320846 
L 145.279821 280.844343 
L 155.374293 288.012909 
L 165.468766 294.826544 
L 173.03962 299.703848 
L 180.610474 304.381503 
L 188.181329 308.859511 
L 195.752183 313.137869 
L 203.323037 317.21658 
L 210.893891 321.095642 
L 218.464746 324.775056 
L 226.0356 328.254822 
L 233.606454 331.534939 
L 241.177308 334.615408 
L 248.748163 337.496229 
L 256.319017 340.177401 
L 263.889871 342.658925 
L 271.460726 344.940801 
L 279.03158 347.023028 
L 286.602434 348.905607 
L 294.173288 350.588538 
L 301.744143 352.071821 
L 309.314997 353.355455 
L 316.885851 354.439441 
L 324.456705 355.323779 
L 332.02756 356.008468 
L 339.598414 356.493509 
L 347.169268 356.778902 
L 354.740122 356.864646 
L 362.310977 356.750743 
L 369.881831 356.43719 
L 377.452685 355.92399 
L 385.02354 355.211141 
L 392.594394 354.298644 
L 400.165248 353.186499 
L 407.736102 351.874705 
L 415.306957 350.363263 
L 422.877811 348.652173 
L 430.448665 346.741434 
L 438.019519 344.631047 
L 445.590374 342.321012 
L 453.161228 339.811329 
L 460.732082 337.101997 
L 468.302937 334.193017 
L 475.873791 331.084389 
L 483.444645 327.776112 
L 491.015499 324.268187 
L 498.586354 320.560614 
L 506.157208 316.653392 
L 513.728062 312.546522 
L 521.298916 308.240004 
L 528.869771 303.733837 
L 536.440625 299.028023 
L 536.440625 299.028023 
" clip-path="url(#p2083813952)" style="fill: none; stroke-dasharray: 5.55,2.4; stroke-dashoffset: 0; stroke: #ffe600; stroke-width: 1.5"/>
   </g>
   <g id="line2d_47">
    <path d="M 34.240625 187.649788 
L 44.335097 198.173748 
L 54.42957 208.377407 
L 64.524042 218.260765 
L 74.618514 227.823821 
L 84.712987 237.066576 
L 94.807459 245.989029 
L 104.901932 254.591182 
L 114.996404 262.873033 
L 125.090876 270.834582 
L 135.185349 278.475831 
L 145.279821 285.796778 
L 155.374293 292.797424 
L 165.468766 299.477768 
L 175.563238 305.837812 
L 185.65771 311.877553 
L 195.752183 317.596994 
L 205.846655 322.996133 
L 215.941128 328.074972 
L 226.0356 332.833508 
L 236.130072 337.271744 
L 246.224545 341.389678 
L 253.795399 344.267931 
L 261.366253 346.966014 
L 268.937107 349.483928 
L 276.507962 351.821673 
L 284.078816 353.979248 
L 291.64967 355.956653 
L 299.220524 357.753889 
L 306.791379 359.370956 
L 314.362233 360.807853 
L 321.933087 362.06458 
L 329.503942 363.141139 
L 337.074796 364.037527 
L 344.64565 364.753746 
L 352.216504 365.289796 
L 359.787359 365.645676 
L 367.358213 365.821387 
L 374.929067 365.816928 
L 382.499921 365.6323 
L 390.070776 365.267502 
L 397.64163 364.722535 
L 405.212484 363.997398 
L 412.783339 363.092092 
L 420.354193 362.006617 
L 427.925047 360.740972 
L 435.495901 359.295157 
L 443.066756 357.669173 
L 450.63761 355.863019 
L 458.208464 353.876696 
L 465.779318 351.710204 
L 473.350173 349.363542 
L 480.921027 346.83671 
L 488.491881 344.129709 
L 496.062736 341.242539 
L 503.63359 338.175199 
L 513.728062 333.805149 
L 523.822535 329.114797 
L 533.917007 324.104145 
L 536.440625 322.801434 
L 536.440625 322.801434 
" clip-path="url(#p2083813952)" style="fill: none; stroke-dasharray: 5.55,2.4; stroke-dashoffset: 0; stroke: #ff7a00; stroke-width: 1.5"/>
   </g>
   <g id="line2d_48">
    <path d="M 34.240625 204.118019 
L 44.335097 213.686756 
L 54.42957 222.992099 
L 64.524042 232.034046 
L 74.618514 240.8126 
L 84.712987 249.327758 
L 94.807459 257.579522 
L 104.901932 265.567891 
L 114.996404 273.292866 
L 125.090876 280.754446 
L 135.185349 287.952631 
L 145.279821 294.887422 
L 155.374293 301.558818 
L 165.468766 307.966819 
L 175.563238 314.111426 
L 185.65771 319.992638 
L 195.752183 325.610455 
L 205.846655 330.964878 
L 215.941128 336.055906 
L 226.0356 340.883539 
L 236.130072 345.447778 
L 246.224545 349.748622 
L 256.319017 353.786072 
L 266.413489 357.560127 
L 276.507962 361.070787 
L 286.602434 364.318052 
L 296.696906 367.301923 
L 306.791379 370.022399 
L 316.885851 372.479481 
L 326.980323 374.673168 
L 337.074796 376.60346 
L 347.169268 378.270357 
L 357.263741 379.67386 
L 367.358213 380.813969 
L 377.452685 381.690682 
L 387.547158 382.304001 
L 397.64163 382.653925 
L 407.736102 382.740455 
L 417.830575 382.56359 
L 427.925047 382.12333 
L 438.019519 381.419676 
L 448.113992 380.452627 
L 458.208464 379.222183 
L 468.302937 377.728345 
L 478.397409 375.971112 
L 488.491881 373.950485 
L 498.586354 371.666462 
L 508.680826 369.119045 
L 518.775298 366.308234 
L 528.869771 363.234028 
L 536.440625 360.75552 
L 536.440625 360.75552 
" clip-path="url(#p2083813952)" style="fill: none; stroke-dasharray: 5.55,2.4; stroke-dashoffset: 0; stroke: #ff1300; stroke-width: 1.5"/>
   </g>
   <g id="patch_3">
    <path d="M 34.240625 410.398125 
L 34.240625 22.318125 
" style="fill: none; stroke: #000000; stroke-width: 0.8; stroke-linejoin: miter; stroke-linecap: square"/>
   </g>
   <g id="patch_4">
    <path d="M 536.440625 410.398125 
L 536.440625 22.318125 
" style="fill: none; stroke: #000000; stroke-width: 0.8; stroke-linejoin: miter; stroke-linecap: square"/>
   </g>
   <g id="patch_5">
    <path d="M 34.240625 410.398125 
L 536.440625 410.398125 
" style="fill: none; stroke: #000000; stroke-width: 0.8; stroke-linejoin: miter; stroke-linecap: square"/>
   </g>
   <g id="patch_6">
    <path d="M 34.240625 22.318125 
L 536.440625 22.318125 
" style="fill: none; stroke: #000000; stroke-width: 0.8; stroke-linejoin: miter; stroke-linecap: square"/>
   </g>
   <g id="text_12">
    <!-- IsoFLOPs Curves -->
    <g transform="translate(236.10125 16.318125) scale(0.12 -0.12)">
     <defs>
      <path id="DejaVuSans-49" d="M 628 4666 
L 1259 4666 
L 1259 0 
L 628 0 
L 628 4666 
z
" transform="scale(0.015625)"/>
      <path id="DejaVuSans-4f" d="M 2522 4238 
Q 1834 4238 1429 3725 
Q 1025 3213 1025 2328 
Q 1025 1447 1429 934 
Q 1834 422 2522 422 
Q 3209 422 3611 934 
Q 4013 1447 4013 2328 
Q 4013 3213 3611 3725 
Q 3209 4238 2522 4238 
z
M 2522 4750 
Q 3503 4750 4090 4092 
Q 4678 3434 4678 2328 
Q 4678 1225 4090 567 
Q 3503 -91 2522 -91 
Q 1538 -91 948 565 
Q 359 1222 359 2328 
Q 359 3434 948 4092 
Q 1538 4750 2522 4750 
z
" transform="scale(0.015625)"/>
      <path id="DejaVuSans-43" d="M 4122 4306 
L 4122 3641 
Q 3803 3938 3442 4084 
Q 3081 4231 2675 4231 
Q 1875 4231 1450 3742 
Q 1025 3253 1025 2328 
Q 1025 1406 1450 917 
Q 1875 428 2675 428 
Q 3081 428 3442 575 
Q 3803 722 4122 1019 
L 4122 359 
Q 3791 134 3420 21 
Q 3050 -91 2638 -91 
Q 1578 -91 968 557 
Q 359 1206 359 2328 
Q 359 3453 968 4101 
Q 1578 4750 2638 4750 
Q 3056 4750 3426 4639 
Q 3797 4528 4122 4306 
z
" transform="scale(0.015625)"/>
      <path id="DejaVuSans-75" d="M 544 1381 
L 544 3500 
L 1119 3500 
L 1119 1403 
Q 1119 906 1312 657 
Q 1506 409 1894 409 
Q 2359 409 2629 706 
Q 2900 1003 2900 1516 
L 2900 3500 
L 3475 3500 
L 3475 0 
L 2900 0 
L 2900 538 
Q 2691 219 2414 64 
Q 2138 -91 1772 -91 
Q 1169 -91 856 284 
Q 544 659 544 1381 
z
M 1991 3584 
L 1991 3584 
z
" transform="scale(0.015625)"/>
      <path id="DejaVuSans-76" d="M 191 3500 
L 800 3500 
L 1894 563 
L 2988 3500 
L 3597 3500 
L 2284 0 
L 1503 0 
L 191 3500 
z
" transform="scale(0.015625)"/>
     </defs>
     <use xlink:href="#DejaVuSans-49"/>
     <use xlink:href="#DejaVuSans-73" x="29.492188"/>
     <use xlink:href="#DejaVuSans-6f" x="81.591797"/>
     <use xlink:href="#DejaVuSans-46" x="142.773438"/>
     <use xlink:href="#DejaVuSans-4c" x="200.292969"/>
     <use xlink:href="#DejaVuSans-4f" x="252.380859"/>
     <use xlink:href="#DejaVuSans-50" x="331.091797"/>
     <use xlink:href="#DejaVuSans-73" x="389.644531"/>
     <use xlink:href="#DejaVuSans-20" x="441.744141"/>
     <use xlink:href="#DejaVuSans-43" x="473.53125"/>
     <use xlink:href="#DejaVuSans-75" x="543.355469"/>
     <use xlink:href="#DejaVuSans-72" x="606.734375"/>
     <use xlink:href="#DejaVuSans-76" x="647.847656"/>
     <use xlink:href="#DejaVuSans-65" x="707.027344"/>
     <use xlink:href="#DejaVuSans-73" x="768.550781"/>
    </g>
   </g>
   <g id="PathCollection_2">
    <defs>
     <path id="mea14312219" d="M -3 3 
L 3 -3 
M -3 -3 
L 3 3 
" style="stroke: #000000; stroke-width: 1.5"/>
    </defs>
    <g clip-path="url(#p2083813952)">
     <use xlink:href="#mea14312219" x="204.956929" y="225.748625" style="stroke: #000000; stroke-width: 1.5"/>
    </g>
   </g>
   <g id="PathCollection_3">
    <g clip-path="url(#p2083813952)">
     <use xlink:href="#mea14312219" x="222.19869" y="245.93525" style="stroke: #000000; stroke-width: 1.5"/>
    </g>
   </g>
   <g id="PathCollection_4">
    <g clip-path="url(#p2083813952)">
     <use xlink:href="#mea14312219" x="257.744055" y="283.699684" style="stroke: #000000; stroke-width: 1.5"/>
    </g>
   </g>
   <g id="PathCollection_5">
    <g clip-path="url(#p2083813952)">
     <use xlink:href="#mea14312219" x="279.889529" y="304.184941" style="stroke: #000000; stroke-width: 1.5"/>
    </g>
   </g>
   <g id="PathCollection_6">
    <g clip-path="url(#p2083813952)">
     <use xlink:href="#mea14312219" x="296.484281" y="317.819377" style="stroke: #000000; stroke-width: 1.5"/>
    </g>
   </g>
   <g id="PathCollection_7">
    <g clip-path="url(#p2083813952)">
     <use xlink:href="#mea14312219" x="330.51303" y="343.307507" style="stroke: #000000; stroke-width: 1.5"/>
    </g>
   </g>
   <g id="PathCollection_8">
    <g clip-path="url(#p2083813952)">
     <use xlink:href="#mea14312219" x="354.206207" y="356.865143" style="stroke: #000000; stroke-width: 1.5"/>
    </g>
   </g>
   <g id="PathCollection_9">
    <g clip-path="url(#p2083813952)">
     <use xlink:href="#mea14312219" x="370.95628" y="365.841734" style="stroke: #000000; stroke-width: 1.5"/>
    </g>
   </g>
   <g id="PathCollection_10">
    <g clip-path="url(#p2083813952)">
     <use xlink:href="#mea14312219" x="406.005073" y="382.744328" style="stroke: #000000; stroke-width: 1.5"/>
    </g>
   </g>
   <g id="legend_1">
    <g id="patch_7">
     <path d="M 430.745313 162.42125 
L 529.440625 162.42125 
Q 531.440625 162.42125 531.440625 160.42125 
L 531.440625 29.318125 
Q 531.440625 27.318125 529.440625 27.318125 
L 430.745313 27.318125 
Q 428.745313 27.318125 428.745313 29.318125 
L 428.745313 160.42125 
Q 428.745313 162.42125 430.745313 162.42125 
z
" style="fill: #ffffff; opacity: 0.8; stroke: #cccccc; stroke-linejoin: miter"/>
    </g>
    <g id="line2d_49">
     <path d="M 432.745313 35.416562 
L 442.745313 35.416562 
L 452.745313 35.416562 
" style="fill: none; stroke-dasharray: 5.55,2.4; stroke-dashoffset: 0; stroke: #000080; stroke-width: 1.5"/>
    </g>
    <g id="text_13">
     <!-- 6e+18 FLOPs -->
     <g transform="translate(460.745313 38.916562) scale(0.1 -0.1)">
      <defs>
       <path id="DejaVuSans-2b" d="M 2944 4013 
L 2944 2272 
L 4684 2272 
L 4684 1741 
L 2944 1741 
L 2944 0 
L 2419 0 
L 2419 1741 
L 678 1741 
L 678 2272 
L 2419 2272 
L 2419 4013 
L 2944 4013 
z
" transform="scale(0.015625)"/>
      </defs>
      <use xlink:href="#DejaVuSans-36"/>
      <use xlink:href="#DejaVuSans-65" x="63.623047"/>
      <use xlink:href="#DejaVuSans-2b" x="125.146484"/>
      <use xlink:href="#DejaVuSans-31" x="208.935547"/>
      <use xlink:href="#DejaVuSans-38" x="272.558594"/>
      <use xlink:href="#DejaVuSans-20" x="336.181641"/>
      <use xlink:href="#DejaVuSans-46" x="367.96875"/>
      <use xlink:href="#DejaVuSans-4c" x="425.488281"/>
      <use xlink:href="#DejaVuSans-4f" x="477.576172"/>
      <use xlink:href="#DejaVuSans-50" x="556.287109"/>
      <use xlink:href="#DejaVuSans-73" x="614.839844"/>
     </g>
    </g>
    <g id="line2d_50">
     <path d="M 432.745313 50.094687 
L 442.745313 50.094687 
L 452.745313 50.094687 
" style="fill: none; stroke-dasharray: 5.55,2.4; stroke-dashoffset: 0; stroke: #0000ff; stroke-width: 1.5"/>
    </g>
    <g id="text_14">
     <!-- 1e+19 FLOPs -->
     <g transform="translate(460.745313 53.594687) scale(0.1 -0.1)">
      <use xlink:href="#DejaVuSans-31"/>
      <use xlink:href="#DejaVuSans-65" x="63.623047"/>
      <use xlink:href="#DejaVuSans-2b" x="125.146484"/>
      <use xlink:href="#DejaVuSans-31" x="208.935547"/>
      <use xlink:href="#DejaVuSans-39" x="272.558594"/>
      <use xlink:href="#DejaVuSans-20" x="336.181641"/>
      <use xlink:href="#DejaVuSans-46" x="367.96875"/>
      <use xlink:href="#DejaVuSans-4c" x="425.488281"/>
      <use xlink:href="#DejaVuSans-4f" x="477.576172"/>
      <use xlink:href="#DejaVuSans-50" x="556.287109"/>
      <use xlink:href="#DejaVuSans-73" x="614.839844"/>
     </g>
    </g>
    <g id="line2d_51">
     <path d="M 432.745313 64.772812 
L 442.745313 64.772812 
L 452.745313 64.772812 
" style="fill: none; stroke-dasharray: 5.55,2.4; stroke-dashoffset: 0; stroke: #0060ff; stroke-width: 1.5"/>
    </g>
    <g id="text_15">
     <!-- 3e+19 FLOPs -->
     <g transform="translate(460.745313 68.272812) scale(0.1 -0.1)">
      <defs>
       <path id="DejaVuSans-33" d="M 2597 2516 
Q 3050 2419 3304 2112 
Q 3559 1806 3559 1356 
Q 3559 666 3084 287 
Q 2609 -91 1734 -91 
Q 1441 -91 1130 -33 
Q 819 25 488 141 
L 488 750 
Q 750 597 1062 519 
Q 1375 441 1716 441 
Q 2309 441 2620 675 
Q 2931 909 2931 1356 
Q 2931 1769 2642 2001 
Q 2353 2234 1838 2234 
L 1294 2234 
L 1294 2753 
L 1863 2753 
Q 2328 2753 2575 2939 
Q 2822 3125 2822 3475 
Q 2822 3834 2567 4026 
Q 2313 4219 1838 4219 
Q 1578 4219 1281 4162 
Q 984 4106 628 3988 
L 628 4550 
Q 988 4650 1302 4700 
Q 1616 4750 1894 4750 
Q 2613 4750 3031 4423 
Q 3450 4097 3450 3541 
Q 3450 3153 3228 2886 
Q 3006 2619 2597 2516 
z
" transform="scale(0.015625)"/>
      </defs>
      <use xlink:href="#DejaVuSans-33"/>
      <use xlink:href="#DejaVuSans-65" x="63.623047"/>
      <use xlink:href="#DejaVuSans-2b" x="125.146484"/>
      <use xlink:href="#DejaVuSans-31" x="208.935547"/>
      <use xlink:href="#DejaVuSans-39" x="272.558594"/>
      <use xlink:href="#DejaVuSans-20" x="336.181641"/>
      <use xlink:href="#DejaVuSans-46" x="367.96875"/>
      <use xlink:href="#DejaVuSans-4c" x="425.488281"/>
      <use xlink:href="#DejaVuSans-4f" x="477.576172"/>
      <use xlink:href="#DejaVuSans-50" x="556.287109"/>
      <use xlink:href="#DejaVuSans-73" x="614.839844"/>
     </g>
    </g>
    <g id="line2d_52">
     <path d="M 432.745313 79.450937 
L 442.745313 79.450937 
L 452.745313 79.450937 
" style="fill: none; stroke-dasharray: 5.55,2.4; stroke-dashoffset: 0; stroke: #00d4ff; stroke-width: 1.5"/>
    </g>
    <g id="text_16">
     <!-- 6e+19 FLOPs -->
     <g transform="translate(460.745313 82.950937) scale(0.1 -0.1)">
      <use xlink:href="#DejaVuSans-36"/>
      <use xlink:href="#DejaVuSans-65" x="63.623047"/>
      <use xlink:href="#DejaVuSans-2b" x="125.146484"/>
      <use xlink:href="#DejaVuSans-31" x="208.935547"/>
      <use xlink:href="#DejaVuSans-39" x="272.558594"/>
      <use xlink:href="#DejaVuSans-20" x="336.181641"/>
      <use xlink:href="#DejaVuSans-46" x="367.96875"/>
      <use xlink:href="#DejaVuSans-4c" x="425.488281"/>
      <use xlink:href="#DejaVuSans-4f" x="477.576172"/>
      <use xlink:href="#DejaVuSans-50" x="556.287109"/>
      <use xlink:href="#DejaVuSans-73" x="614.839844"/>
     </g>
    </g>
    <g id="line2d_53">
     <path d="M 432.745313 94.129062 
L 442.745313 94.129062 
L 452.745313 94.129062 
" style="fill: none; stroke-dasharray: 5.55,2.4; stroke-dashoffset: 0; stroke: #4dffaa; stroke-width: 1.5"/>
    </g>
    <g id="text_17">
     <!-- 1e+20 FLOPs -->
     <g transform="translate(460.745313 97.629062) scale(0.1 -0.1)">
      <defs>
       <path id="DejaVuSans-32" d="M 1228 531 
L 3431 531 
L 3431 0 
L 469 0 
L 469 531 
Q 828 903 1448 1529 
Q 2069 2156 2228 2338 
Q 2531 2678 2651 2914 
Q 2772 3150 2772 3378 
Q 2772 3750 2511 3984 
Q 2250 4219 1831 4219 
Q 1534 4219 1204 4116 
Q 875 4013 500 3803 
L 500 4441 
Q 881 4594 1212 4672 
Q 1544 4750 1819 4750 
Q 2544 4750 2975 4387 
Q 3406 4025 3406 3419 
Q 3406 3131 3298 2873 
Q 3191 2616 2906 2266 
Q 2828 2175 2409 1742 
Q 1991 1309 1228 531 
z
" transform="scale(0.015625)"/>
      </defs>
      <use xlink:href="#DejaVuSans-31"/>
      <use xlink:href="#DejaVuSans-65" x="63.623047"/>
      <use xlink:href="#DejaVuSans-2b" x="125.146484"/>
      <use xlink:href="#DejaVuSans-32" x="208.935547"/>
      <use xlink:href="#DejaVuSans-30" x="272.558594"/>
      <use xlink:href="#DejaVuSans-20" x="336.181641"/>
      <use xlink:href="#DejaVuSans-46" x="367.96875"/>
      <use xlink:href="#DejaVuSans-4c" x="425.488281"/>
      <use xlink:href="#DejaVuSans-4f" x="477.576172"/>
      <use xlink:href="#DejaVuSans-50" x="556.287109"/>
      <use xlink:href="#DejaVuSans-73" x="614.839844"/>
     </g>
    </g>
    <g id="line2d_54">
     <path d="M 432.745313 108.807187 
L 442.745313 108.807187 
L 452.745313 108.807187 
" style="fill: none; stroke-dasharray: 5.55,2.4; stroke-dashoffset: 0; stroke: #aaff4d; stroke-width: 1.5"/>
    </g>
    <g id="text_18">
     <!-- 3e+20 FLOPs -->
     <g transform="translate(460.745313 112.307187) scale(0.1 -0.1)">
      <use xlink:href="#DejaVuSans-33"/>
      <use xlink:href="#DejaVuSans-65" x="63.623047"/>
      <use xlink:href="#DejaVuSans-2b" x="125.146484"/>
      <use xlink:href="#DejaVuSans-32" x="208.935547"/>
      <use xlink:href="#DejaVuSans-30" x="272.558594"/>
      <use xlink:href="#DejaVuSans-20" x="336.181641"/>
      <use xlink:href="#DejaVuSans-46" x="367.96875"/>
      <use xlink:href="#DejaVuSans-4c" x="425.488281"/>
      <use xlink:href="#DejaVuSans-4f" x="477.576172"/>
      <use xlink:href="#DejaVuSans-50" x="556.287109"/>
      <use xlink:href="#DejaVuSans-73" x="614.839844"/>
     </g>
    </g>
    <g id="line2d_55">
     <path d="M 432.745313 123.485312 
L 442.745313 123.485312 
L 452.745313 123.485312 
" style="fill: none; stroke-dasharray: 5.55,2.4; stroke-dashoffset: 0; stroke: #ffe600; stroke-width: 1.5"/>
    </g>
    <g id="text_19">
     <!-- 6e+20 FLOPs -->
     <g transform="translate(460.745313 126.985312) scale(0.1 -0.1)">
      <use xlink:href="#DejaVuSans-36"/>
      <use xlink:href="#DejaVuSans-65" x="63.623047"/>
      <use xlink:href="#DejaVuSans-2b" x="125.146484"/>
      <use xlink:href="#DejaVuSans-32" x="208.935547"/>
      <use xlink:href="#DejaVuSans-30" x="272.558594"/>
      <use xlink:href="#DejaVuSans-20" x="336.181641"/>
      <use xlink:href="#DejaVuSans-46" x="367.96875"/>
      <use xlink:href="#DejaVuSans-4c" x="425.488281"/>
      <use xlink:href="#DejaVuSans-4f" x="477.576172"/>
      <use xlink:href="#DejaVuSans-50" x="556.287109"/>
      <use xlink:href="#DejaVuSans-73" x="614.839844"/>
     </g>
    </g>
    <g id="line2d_56">
     <path d="M 432.745313 138.163437 
L 442.745313 138.163437 
L 452.745313 138.163437 
" style="fill: none; stroke-dasharray: 5.55,2.4; stroke-dashoffset: 0; stroke: #ff7a00; stroke-width: 1.5"/>
    </g>
    <g id="text_20">
     <!-- 1e+21 FLOPs -->
     <g transform="translate(460.745313 141.663437) scale(0.1 -0.1)">
      <use xlink:href="#DejaVuSans-31"/>
      <use xlink:href="#DejaVuSans-65" x="63.623047"/>
      <use xlink:href="#DejaVuSans-2b" x="125.146484"/>
      <use xlink:href="#DejaVuSans-32" x="208.935547"/>
      <use xlink:href="#DejaVuSans-31" x="272.558594"/>
      <use xlink:href="#DejaVuSans-20" x="336.181641"/>
      <use xlink:href="#DejaVuSans-46" x="367.96875"/>
      <use xlink:href="#DejaVuSans-4c" x="425.488281"/>
      <use xlink:href="#DejaVuSans-4f" x="477.576172"/>
      <use xlink:href="#DejaVuSans-50" x="556.287109"/>
      <use xlink:href="#DejaVuSans-73" x="614.839844"/>
     </g>
    </g>
    <g id="line2d_57">
     <path d="M 432.745313 152.841562 
L 442.745313 152.841562 
L 452.745313 152.841562 
" style="fill: none; stroke-dasharray: 5.55,2.4; stroke-dashoffset: 0; stroke: #ff1300; stroke-width: 1.5"/>
    </g>
    <g id="text_21">
     <!-- 3e+21 FLOPs -->
     <g transform="translate(460.745313 156.341562) scale(0.1 -0.1)">
      <use xlink:href="#DejaVuSans-33"/>
      <use xlink:href="#DejaVuSans-65" x="63.623047"/>
      <use xlink:href="#DejaVuSans-2b" x="125.146484"/>
      <use xlink:href="#DejaVuSans-32" x="208.935547"/>
      <use xlink:href="#DejaVuSans-31" x="272.558594"/>
      <use xlink:href="#DejaVuSans-20" x="336.181641"/>
      <use xlink:href="#DejaVuSans-46" x="367.96875"/>
      <use xlink:href="#DejaVuSans-4c" x="425.488281"/>
      <use xlink:href="#DejaVuSans-4f" x="477.576172"/>
      <use xlink:href="#DejaVuSans-50" x="556.287109"/>
      <use xlink:href="#DejaVuSans-73" x="614.839844"/>
     </g>
    </g>
   </g>
  </g>
 </g>
 <defs>
  <clipPath id="p2083813952">
   <rect x="34.240625" y="22.318125" width="502.2" height="388.08"/>
  </clipPath>
 </defs>
</svg>
